<?xml version="1.0" encoding="UTF-8"?><svg id="katman_2" xmlns="http://www.w3.org/2000/svg" viewBox="0 0 1034.61 359.23"><defs><style>.cls-1{fill:#0c406a;}.cls-2{fill:#fff;}.cls-3{fill:#0b4069;}.cls-4{fill:#b5e1fa;}.cls-4,.cls-5{opacity:.25;}.cls-6{fill:#18a9ba;}.cls-7{fill:none;}.cls-5{fill:#aed6f2;}</style></defs><g id="katman_1"><path class="cls-5" d="M180.56,123.63c.8-4.89,2.26-5.34,2.08-8.8-.06-1.2-.21-4.14-2.37-6.28-1.6-1.6-3.54-1.99-5.41-2.37-1.4-.28-4.13-.84-6.82,.05-4.22,1.39-6.06,5.59-8.17,10.39-1.45,3.31-4.29,9.77-1.99,11.89,1.12,1.04,2.25-.1,7.46,.15,4.18,.2,8.36,1.16,8.36,1.16,3.66,.84,4.61,1.53,5.61,.87,1.34-.88,.55-2.72,1.26-7.06Z"/><path class="cls-4" d="M268.64,86.22l-5.65,5.14-7.87,15.75-7.36,9.42-8.9,8.21-9.24,4.96-15.41,4.79h-8.56l-21.23-3.42-10.44-1.37-16.09-1.2-11.81,1.71-13.18,4.62-11.3,5.82-8.56,7.19-11.98-3.25-24.31-.68-13.01,3.25,8.05,8.73,11.3,5.82,5.31,3.6,8.73,3.08,14.21,3.08,8.9,.34,10.96-.34,4.96-3.08,5.65-.86,3.08,.51-1.63,8.9v5.65l-6.25,3.42-9.93,7.53-5.31,7.36-5.14,8.9-3.08,8.05-1.2,11.3,.17,5.31-3.94-6.68-7.53-7.02-9.53-6.25-8.45-1.11-5.48-1.88-2.74,9.07,2.57,7.02,4.45,7.19,8.05,9.93,8.9,6.85,8.73,5.31,9.24,3.42,8.9-.17,9.59-1.71,6.33-4.79,5.48,.17,1.71-4.79,3.42-1.03-.68,5.48,2.05,8.39,3.6,9.59,8.05,16.09-.86,3.25-4.03,4.11v9.76l9.17,21.23,3.08,7.19,2.4,1.39,4.79,2.38,2.91-11.81,7.53-31.09,2.23-16.67,1.37-29.45v-26.88l-1.03-16.09-1.88-10.79-1.11-11.56s2.4-3.85,2.65-3.94,7.19-9.59,7.19-9.59l.73-4.47,12.07-3.41,17.33-5.78,13.13-9.12,8.95-9.16,8.73-13.52,5.14-12.5,2.91-12.67v-12.15"/><rect class="cls-6" x="225.98" y="262.75" width="566.68" height="78.62" rx="8" ry="8"/><g><path class="cls-1" d="M262.62,233.68c-6.25,0-11.69-1.42-16.31-4.26-4.62-2.83-8.19-6.84-10.71-12-2.52-5.17-3.78-11.29-3.78-18.36s1.24-13.2,3.73-18.36c2.49-5.16,6.04-9.15,10.66-11.95,4.62-2.81,10.09-4.21,16.4-4.21s11.88,1.4,16.5,4.21c4.62,2.81,8.19,6.78,10.71,11.91,2.52,5.13,3.78,11.24,3.78,18.31s-1.28,13.22-3.83,18.41c-2.55,5.2-6.14,9.22-10.76,12.05-4.62,2.84-10.09,4.26-16.4,4.26Zm0-6.98c7.21,0,12.78-2.42,16.74-7.27,3.95-4.84,5.93-11.64,5.93-20.37s-1.98-15.51-5.93-20.33c-3.95-4.81-9.53-7.22-16.74-7.22s-12.59,2.41-16.55,7.22c-3.95,4.81-5.93,11.59-5.93,20.33s1.97,15.45,5.93,20.33c3.95,4.88,9.47,7.31,16.55,7.31Z"/><path class="cls-1" d="M310.44,250.7c-2.55,0-3.83-1.31-3.83-3.92v-57.2c0-2.61,1.24-3.92,3.73-3.92,2.61,0,3.92,1.31,3.92,3.92v4.98c1.34-2.81,3.41-5.02,6.22-6.65,2.81-1.63,6.03-2.44,9.66-2.44,4.14,0,7.76,.97,10.85,2.91,3.09,1.95,5.48,4.72,7.17,8.32,1.69,3.61,2.53,7.89,2.53,12.87s-.85,9.17-2.53,12.77c-1.69,3.6-4.08,6.39-7.17,8.37-3.09,1.98-6.71,2.96-10.85,2.96-3.57,0-6.76-.8-9.56-2.39-2.81-1.59-4.88-3.79-6.22-6.6v22.09c0,2.61-1.31,3.92-3.92,3.92Zm18.08-23.24c4.34,0,7.81-1.55,10.42-4.64s3.92-7.51,3.92-13.25-1.31-10.24-3.92-13.29c-2.61-3.06-6.09-4.59-10.42-4.59s-7.81,1.53-10.43,4.59c-2.61,3.06-3.92,7.49-3.92,13.29s1.31,10.16,3.92,13.25,6.09,4.64,10.43,4.64Z"/><path class="cls-1" d="M364,233.2c-1.59,0-2.87-.5-3.83-1.48-.96-.99-1.43-2.25-1.43-3.78s.48-2.79,1.43-3.78c.96-.99,2.23-1.48,3.83-1.48s2.85,.49,3.78,1.48c.92,.99,1.39,2.25,1.39,3.78s-.46,2.79-1.39,3.78c-.92,.99-2.18,1.48-3.78,1.48Z"/><path class="cls-1" d="M387.43,232.81c-2.87,0-4.3-1.43-4.3-4.3v-58.82c0-2.87,1.43-4.31,4.3-4.31h18.46c10.9,0,19.32,2.89,25.25,8.66,5.93,5.77,8.9,14.11,8.9,25.01s-2.97,19.26-8.9,25.06-14.35,8.7-25.25,8.7h-18.46Zm3.54-6.69h14.35c17.6,0,26.4-9.02,26.4-27.07s-8.8-26.97-26.4-26.97h-14.35v54.04Z"/><path class="cls-1" d="M454.77,233.35c-2.1,0-3.15-1.08-3.15-3.23v-32.08c0-2.1,1-3.15,3-3.15s3.08,1.05,3.08,3.15v4.08c1.02-2.36,2.61-4.17,4.77-5.43,2.15-1.25,4.72-1.93,7.69-2.04,1.64-.15,2.51,.67,2.61,2.46,.15,1.8-.77,2.8-2.77,3l-1.23,.15c-3.54,.31-6.23,1.42-8.08,3.35-1.85,1.92-2.77,4.55-2.77,7.88v18.62c0,2.15-1.05,3.23-3.15,3.23Z"/><path class="cls-1" d="M480.54,233.12c-1.28,0-2.31-.4-3.08-1.19-.77-.79-1.15-1.81-1.15-3.04s.38-2.24,1.15-3.04,1.79-1.19,3.08-1.19,2.3,.4,3.04,1.19c.74,.8,1.12,1.81,1.12,3.04s-.37,2.25-1.12,3.04c-.74,.8-1.76,1.19-3.04,1.19Z"/><path class="cls-3" d="M521.33,233.48c-2.62,0-3.92-1.37-3.92-4.11v-60.54c0-2.74,1.31-4.11,3.92-4.11s3.92,1.37,3.92,4.11v26.4h40.46v-26.4c0-2.74,1.31-4.11,3.92-4.11s3.92,1.37,3.92,4.11v60.54c0,2.74-1.31,4.11-3.92,4.11s-3.92-1.37-3.92-4.11v-27.35h-40.46v27.35c0,2.74-1.31,4.11-3.92,4.11Z"/><path class="cls-3" d="M600.94,233.51c-8.97,0-13.46-4.95-13.46-14.85v-20.62c0-2.1,1.02-3.15,3.08-3.15s3.15,1.05,3.15,3.15v20.54c0,3.33,.68,5.79,2.04,7.39,1.36,1.59,3.5,2.38,6.42,2.38,3.18,0,5.77-1.07,7.77-3.19,2-2.13,3-4.96,3-8.5v-18.62c0-2.1,1.05-3.15,3.15-3.15s3.08,1.05,3.08,3.15v32.08c0,2.15-1,3.23-3,3.23s-3.08-1.08-3.08-3.23v-3.61c-1.18,2.26-2.83,3.99-4.96,5.19s-4.53,1.81-7.19,1.81Zm-4.15-47.39c-2.41,0-3.61-1.18-3.61-3.54s1.2-3.61,3.61-3.61,3.62,1.2,3.62,3.61-1.21,3.54-3.62,3.54Zm13.46,0c-2.46,0-3.69-1.18-3.69-3.54s1.23-3.61,3.69-3.61,3.54,1.2,3.54,3.61-1.18,3.54-3.54,3.54Z"/><path class="cls-3" d="M643.48,233.51c-2.31,0-4.63-.3-6.96-.88-2.33-.59-4.5-1.55-6.5-2.88-.92-.57-1.37-1.3-1.35-2.19,.02-.9,.37-1.6,1.04-2.11,.67-.52,1.51-.52,2.54,0,2,1.23,3.94,2.09,5.81,2.58s3.73,.73,5.58,.73c2.92,0,5.13-.54,6.62-1.61s2.23-2.54,2.23-4.39c0-1.43-.49-2.58-1.46-3.42-.98-.85-2.51-1.5-4.61-1.96l-7-1.54c-6.36-1.38-9.54-4.67-9.54-9.85,0-3.38,1.35-6.1,4.04-8.16,2.69-2.05,6.22-3.08,10.58-3.08,2.21,0,4.33,.3,6.38,.88,2.05,.59,3.9,1.53,5.54,2.81,.87,.62,1.26,1.36,1.15,2.23-.1,.87-.5,1.55-1.19,2.04s-1.53,.42-2.5-.19c-1.54-1.03-3.1-1.78-4.69-2.27-1.59-.49-3.15-.73-4.69-.73-2.87,0-5.05,.56-6.54,1.69-1.49,1.13-2.23,2.61-2.23,4.46,0,2.87,1.9,4.72,5.69,5.54l7,1.47c3.28,.72,5.77,1.86,7.46,3.42s2.54,3.68,2.54,6.34c0,3.44-1.36,6.14-4.08,8.12-2.72,1.98-6.33,2.96-10.85,2.96Z"/><path class="cls-3" d="M684.71,233.51c-5.9,0-10.57-1.73-14-5.19-3.44-3.46-5.15-8.17-5.15-14.12,0-3.85,.77-7.24,2.31-10.19s3.65-5.23,6.34-6.85,5.81-2.42,9.35-2.42c5.08,0,9.05,1.63,11.92,4.89s4.31,7.73,4.31,13.42c0,1.59-.9,2.38-2.69,2.38h-25.46c.2,4.26,1.43,7.5,3.69,9.73,2.26,2.23,5.39,3.35,9.39,3.35,1.69,0,3.41-.22,5.16-.65,1.74-.43,3.43-1.22,5.08-2.35,1.18-.77,2.16-.92,2.96-.46s1.2,1.17,1.23,2.11-.5,1.78-1.58,2.5c-1.69,1.23-3.71,2.18-6.04,2.85-2.33,.67-4.61,1-6.81,1Zm-1-34.16c-3.54,0-6.33,1.1-8.39,3.31-2.05,2.2-3.26,5.1-3.61,8.69h22.69c-.15-3.79-1.14-6.74-2.96-8.84-1.82-2.1-4.4-3.16-7.73-3.16Z"/><path class="cls-3" d="M716.64,247.2c-1.18,0-1.98-.45-2.38-1.35-.41-.9-.38-1.91,.08-3.04l4.69-10.62-14.15-32.93c-.52-1.18-.53-2.2-.04-3.08,.49-.87,1.42-1.31,2.81-1.31s2.49,.82,3.15,2.46l11.62,28.39,11.69-28.39c.41-.92,.85-1.56,1.31-1.92,.46-.36,1.13-.54,2-.54,1.18,0,1.97,.44,2.38,1.31,.41,.87,.38,1.87-.08,3l-19.7,45.54c-.41,.92-.86,1.56-1.35,1.92-.49,.36-1.17,.54-2.04,.54Z"/><path class="cls-3" d="M750.95,186.27c-2.51,0-3.77-1.23-3.77-3.69s1.26-3.69,3.77-3.69,3.85,1.23,3.85,3.69-1.28,3.69-3.85,3.69Zm0,46.93c-2.05,0-3.08-1.13-3.08-3.38v-31.47c0-2.2,1.03-3.31,3.08-3.31s3.16,1.1,3.16,3.31v31.47c0,2.26-1.05,3.38-3.16,3.38Z"/><path class="cls-3" d="M768.8,233.35c-2.05,0-3.08-1.08-3.08-3.23v-32.08c0-2.1,1-3.15,3-3.15s3.08,1.05,3.08,3.15v3.77c1.23-2.36,2.98-4.13,5.23-5.31,2.25-1.18,4.79-1.77,7.61-1.77,8.87,0,13.31,4.93,13.31,14.77v20.62c0,2.15-1.03,3.23-3.08,3.23s-3.15-1.08-3.15-3.23v-20.23c0-3.48-.68-6.04-2.04-7.65-1.36-1.61-3.53-2.42-6.5-2.42-3.44,0-6.17,1.06-8.19,3.19-2.03,2.13-3.04,4.96-3.04,8.5v18.62c0,2.15-1.05,3.23-3.15,3.23Z"/><path class="cls-3" d="M830.3,233.48c-1.53,0-2.58-.51-3.16-1.53-.57-1.02-.51-2.3,.19-3.83l26.3-59.87c1.02-2.36,2.58-3.54,4.69-3.54,.96,0,1.83,.27,2.63,.82s1.45,1.45,1.96,2.73l26.4,59.87c.7,1.53,.8,2.81,.29,3.83-.51,1.02-1.53,1.53-3.06,1.53-1.15,0-2.07-.3-2.78-.91-.7-.6-1.27-1.48-1.72-2.63l-6.22-14.35h-35.1l-6.12,14.35c-1.02,2.36-2.45,3.54-4.3,3.54Zm27.93-58.92l-14.63,34.43h29.46l-14.63-34.43h-.19Z"/><path class="cls-3" d="M902.06,233.35c-2.05,0-3.08-1.08-3.08-3.23v-48.93c0-2.1,1.03-3.15,3.08-3.15s3.16,1.05,3.16,3.15v30.85h.15l15.77-15.08c.67-.67,1.28-1.18,1.85-1.54,.57-.36,1.31-.54,2.23-.54,1.23,0,2.04,.48,2.43,1.42,.38,.95,.12,1.91-.81,2.88l-15,14.23,16.47,15.46c1.08,1.03,1.37,2.03,.88,3-.49,.97-1.3,1.46-2.42,1.46-.93,0-1.68-.19-2.27-.58-.59-.38-1.27-.96-2.04-1.73l-17.08-15.77h-.15v14.85c0,2.15-1.05,3.23-3.16,3.23Z"/><path class="cls-3" d="M944.53,247.2c-1.18,0-1.98-.45-2.38-1.35-.41-.9-.38-1.91,.08-3.04l4.69-10.62-14.15-32.93c-.52-1.18-.53-2.2-.04-3.08,.49-.87,1.42-1.31,2.81-1.31s2.49,.82,3.15,2.46l11.62,28.39,11.69-28.39c.41-.92,.85-1.56,1.31-1.92,.46-.36,1.13-.54,2-.54,1.18,0,1.97,.44,2.38,1.31,.41,.87,.38,1.87-.08,3l-19.7,45.54c-.41,.92-.86,1.56-1.35,1.92-.49,.36-1.17,.54-2.04,.54Z"/><path class="cls-3" d="M990.76,233.51c-3.64,0-6.79-.79-9.46-2.38-2.66-1.59-4.73-3.83-6.19-6.73-1.46-2.9-2.19-6.32-2.19-10.27s.73-7.37,2.19-10.27c1.46-2.9,3.53-5.14,6.19-6.73,2.67-1.59,5.82-2.38,9.46-2.38s6.73,.8,9.42,2.38c2.69,1.59,4.77,3.84,6.23,6.73,1.46,2.9,2.19,6.32,2.19,10.27s-.73,7.37-2.19,10.27c-1.46,2.9-3.54,5.14-6.23,6.73-2.69,1.59-5.84,2.38-9.42,2.38Zm0-5c3.49,0,6.28-1.24,8.39-3.73,2.1-2.49,3.15-6.04,3.15-10.66s-1.05-8.23-3.15-10.69c-2.1-2.46-4.9-3.69-8.39-3.69s-6.35,1.23-8.42,3.69-3.11,6.03-3.11,10.69,1.04,8.17,3.11,10.66,4.89,3.73,8.42,3.73Z"/><path class="cls-3" d="M1029.38,233.51c-3.69,0-6.51-1.12-8.46-3.35s-2.92-5.48-2.92-9.73v-39.23c0-2.1,1.03-3.15,3.08-3.15s3.16,1.05,3.16,3.15v38.77c0,5.49,2.18,8.23,6.54,8.23,.46,0,.87-.03,1.23-.08,.36-.05,.72-.08,1.08-.08,.57-.05,.97,.08,1.2,.38s.35,.92,.35,1.85c0,1.75-.87,2.74-2.62,3-.41,.1-.85,.17-1.31,.19s-.9,.04-1.31,.04Z"/></g><g><path class="cls-1" d="M843.79,335.3c-6.39,0-11.85-1.35-16.39-4.05-4.55-2.7-8.03-6.54-10.46-11.51-2.43-4.98-3.64-10.9-3.64-17.78s1.21-12.71,3.64-17.68c2.43-4.97,5.91-8.81,10.46-11.51,4.54-2.7,10.01-4.05,16.39-4.05,3.81,0,7.43,.55,10.87,1.66,3.44,1.1,6.42,2.67,8.93,4.69,1.05,.74,1.64,1.6,1.8,2.58s-.02,1.86-.5,2.62c-.49,.77-1.18,1.26-2.07,1.48-.89,.22-1.89-.08-3-.88-4.36-3.5-9.64-5.25-15.84-5.25-7.31,0-12.89,2.3-16.76,6.91-3.87,4.61-5.8,11.09-5.8,19.43s1.93,14.92,5.8,19.52c3.87,4.61,9.46,6.91,16.76,6.91,6.2,0,11.54-1.78,16.02-5.34,1.11-.74,2.1-1.02,3-.83,.89,.18,1.56,.65,2.03,1.38,.46,.73,.63,1.56,.5,2.48s-.64,1.75-1.56,2.48c-2.64,2.21-5.68,3.88-9.12,5.02-3.44,1.13-7.12,1.7-11.05,1.7Z"/><path class="cls-1" d="M890.3,335.3c-4.42,0-7.8-1.33-10.13-4.01s-3.5-6.55-3.5-11.65v-46.97c0-2.51,1.23-3.78,3.68-3.78s3.78,1.26,3.78,3.78v46.42c0,6.57,2.61,9.85,7.83,9.85,.55,0,1.04-.03,1.47-.09,.43-.06,.86-.09,1.29-.09,.68-.06,1.15,.09,1.43,.46,.27,.37,.41,1.11,.41,2.21,0,2.09-1.04,3.28-3.13,3.59-.49,.12-1.01,.2-1.56,.23s-1.08,.05-1.56,.05Z"/><path class="cls-1" d="M907.62,278.76c-3.01,0-4.51-1.47-4.51-4.42s1.5-4.42,4.51-4.42,4.6,1.47,4.6,4.42-1.53,4.42-4.6,4.42Zm0,56.18c-2.46,0-3.68-1.35-3.68-4.05v-37.67c0-2.64,1.23-3.96,3.68-3.96s3.78,1.32,3.78,3.96v37.67c0,2.7-1.26,4.05-3.78,4.05Z"/><path class="cls-1" d="M928.98,335.12c-2.46,0-3.68-1.29-3.68-3.87v-38.4c0-2.52,1.2-3.78,3.59-3.78s3.68,1.26,3.68,3.78v4.51c1.47-2.83,3.56-4.94,6.26-6.36,2.7-1.41,5.74-2.11,9.12-2.11,10.62,0,15.93,5.89,15.93,17.68v24.68c0,2.58-1.23,3.87-3.68,3.87s-3.78-1.29-3.78-3.87v-24.22c0-4.18-.81-7.23-2.44-9.16-1.63-1.93-4.22-2.9-7.78-2.9-4.11,0-7.38,1.28-9.81,3.82-2.43,2.55-3.64,5.94-3.64,10.18v22.29c0,2.58-1.26,3.87-3.78,3.87Z"/><path class="cls-1" d="M981.29,278.76c-3.01,0-4.51-1.47-4.51-4.42s1.5-4.42,4.51-4.42,4.6,1.47,4.6,4.42-1.53,4.42-4.6,4.42Zm0,56.18c-2.46,0-3.68-1.35-3.68-4.05v-37.67c0-2.64,1.23-3.96,3.68-3.96s3.78,1.32,3.78,3.96v37.67c0,2.7-1.26,4.05-3.78,4.05Z"/><path class="cls-1" d="M1017.94,335.3c-4.48,0-8.35-.97-11.6-2.9-3.25-1.93-5.76-4.66-7.51-8.19-1.75-3.53-2.63-7.66-2.63-12.39,0-7.12,1.93-12.73,5.8-16.81,3.87-4.08,9.18-6.12,15.93-6.12,2.21,0,4.51,.35,6.91,1.06,2.4,.7,4.58,1.85,6.54,3.45,1.04,.73,1.49,1.65,1.33,2.76s-.68,1.93-1.56,2.48c-.89,.55-1.92,.43-3.09-.37-1.66-1.23-3.3-2.09-4.93-2.58s-3.21-.74-4.74-.74c-4.67,0-8.26,1.46-10.78,4.38-2.52,2.92-3.78,7.11-3.78,12.57s1.26,9.56,3.78,12.66c2.52,3.1,6.11,4.65,10.78,4.65,1.53,0,3.11-.25,4.74-.74,1.63-.49,3.27-1.35,4.93-2.58,1.17-.8,2.18-.91,3.04-.32,.86,.58,1.33,1.43,1.43,2.53s-.35,2-1.33,2.67c-1.96,1.6-4.11,2.75-6.45,3.45-2.33,.7-4.6,1.06-6.81,1.06Z"/></g><path class="cls-1" d="M54.69,217.93l18.28,3.38c5.11,12.19,12.5,22.51,21.42,29.86,3.79,3.18,8.01,5.8,12.54,7.8,5.57,2.41,11.29,3.57,16.95,3.39,14.12-.45,25.06-9.19,30.31-13.39,7.3-5.83,13.34-13.1,17.94-21.6,2.9-5.36,5.16-11.04,6.73-16.93,.22-.85-.28-1.72-1.13-1.95-.85-.23-1.73,.27-1.97,1.12-2.79,10.45-9.15,25.32-23.57,36.85-4.99,3.98-15.36,12.27-28.42,12.69-5.21,.17-10.45-.94-15.53-3.14-13.29-5.76-25.43-19.04-32.65-36.73-.21-.5-.65-.87-1.19-.97l-19.13-3.54"/><path class="cls-1" d="M112.22,239.85c.26,.11,.54,.15,.82,.12,.88-.1,1.5-.9,1.4-1.78-.81-6.83-1.41-24.34,10.54-39.54,5-6.36,11.67-11.54,19.3-14.97h.03c.8-.39,1.15-1.34,.78-2.14-.37-.8-1.32-1.15-2.12-.78-8.1,3.65-15.19,9.15-20.5,15.91-12.68,16.13-12.06,34.67-11.2,41.9,.07,.57,.43,1.05,.95,1.28h0Z"/><path class="cls-1" d="M112.1,237.76c.39,.17,.82,.18,1.21,.02,.82-.32,1.23-1.25,.92-2.07-2.49-6.45-6.37-11.77-11.22-15.39-4.17-3.11-8.61-4.74-14.75-7-3.14-1.15-6.37-2.17-9.59-3.01-.85-.21-1.71,.29-1.94,1.13-.23,.85,.27,1.73,1.13,1.96,3.12,.82,6.25,1.8,9.3,2.92,5.88,2.16,10.14,3.72,13.93,6.56,4.37,3.26,7.88,8.1,10.15,13.98,.15,.4,.46,.72,.86,.89h0Z"/><path class="cls-1" d="M171.26,331.87c.45,.2,.97,.17,1.41-.06,.78-.42,1.06-1.4,.64-2.17-3.6-6.58-8.41-16.4-10.89-25.78-.74-2.8-1.4-6.02,.15-8.87,.93-1.72,2.51-3.09,4.69-4.06,.09-.04,.18-.09,.27-.15,.72-.51,.9-1.51,.39-2.23-8.02-11.41-13.14-24.6-14.95-38.43v-.05c-.13-.87-.95-1.48-1.82-1.35s-1.48,.94-1.35,1.82c1.79,13.73,6.74,26.86,14.47,38.35-1.89,1.09-3.45,2.68-4.51,4.58-2,3.7-1.39,7.58-.43,11.22,2.56,9.69,7.49,19.76,11.18,26.5,.17,.31,.44,.56,.77,.7h0Z"/><path class="cls-1" d="M180.73,352.25c.25,.11,.52,.15,.8,.12,.88-.09,1.52-.87,1.43-1.75l-1.5-14.92c10-32.69,14.89-66.35,14.54-100.06-.2-18.04-1.88-36.03-5.03-53.79h0c-.15-.87-.99-1.45-1.86-1.3-.87,.16-1.45,.99-1.3,1.86,3.12,17.59,4.79,35.4,4.98,53.27,.35,33.48-4.53,66.92-14.5,99.39-.06,.2-.08,.42-.06,.63l1.53,15.24c.06,.58,.42,1.08,.96,1.31h0Z"/><path class="cls-1" d="M190.39,183.08c1.74-1.03,10.48-6.7,11.59-17.38,.5-4.82-.64-9.66-3.3-13.99-2.7-4.37-6.68-7.81-11.39-9.87h-.01c-.81-.36-1.75,0-2.11,.82-.35,.81,.01,1.75,.82,2.11,8.41,3.73,13.68,12.2,12.8,20.6-.97,9.34-9.11,14.4-10.04,14.95-.29,.17-.52,.43-.65,.74-.35,.81,.02,1.75,.83,2.11,.47,.2,1.01,.17,1.45-.09Z"/><path class="cls-1" d="M181.84,124.12c3.28-6.8,2.61-14.15-1.62-17.87-2.88-2.53-6.41-2.6-7.8-2.52-6.75,.42-12.87,7.24-15.23,16.96-.2,.85,.32,1.71,1.17,1.92,.86,.22,1.73-.3,1.94-1.16,2-8.22,7.07-14.19,12.33-14.52,.77-.05,3.45-.07,5.48,1.73,3.16,2.77,3.51,8.56,.85,14.08-.24,.5-.21,1.09,.09,1.55,.47,.75,1.46,.97,2.21,.49,.25-.16,.45-.39,.58-.66Z"/><path class="cls-1" d="M54.52,152.13c.42,.18,.91,.18,1.32-.02,8.29-3.94,21.59-8.35,37.85-7,9.57,.8,18.88,3.48,27.41,7.9h.03c.79,.41,1.75,.09,2.15-.7,.4-.79,.08-1.75-.71-2.15-8.9-4.6-18.62-7.4-28.61-8.24-16.97-1.42-30.84,3.18-39.49,7.29"/><path class="cls-1" d="M264.32,87.01c-.84-.27-1.74,.19-2.01,1.03-3.24,10.02-10.01,24.15-23.88,34.58-.21,.16-.44,.34-.69,.53-2.97,2.27-8.5,6.49-16.44,8.65-11.27,3.07-22.08,.85-33.53-1.5-14.04-2.88-29.94-6.14-48.92,.43-9.52,3.29-18.41,8.52-26.43,15.53-.18,.16-.32,.35-.42,.57-.35,.81,.02,1.75,.83,2.11,.57,.25,1.22,.14,1.69-.26,7.71-6.74,16.25-11.75,25.37-14.91,18.15-6.28,32.93-3.25,47.23-.32,11.84,2.43,23.01,4.72,35.01,1.45,8.54-2.32,14.39-6.79,17.54-9.19,.24-.19,.47-.36,.68-.51,14.54-10.94,21.62-25.7,25-36.16,.27-.84-.19-1.74-1.03-2.02"/><path class="cls-1" d="M122.27,173.64c11.36-1.09,22.52-5.25,32.28-12.05h0c.73-.5,.91-1.5,.4-2.23-.5-.73-1.5-.91-2.23-.4-9.31,6.48-19.95,10.45-30.76,11.49-27.8,2.66-47.99-14.43-53.52-19.74-.64-.6-1.64-.58-2.25,.05-.62,.63-.6,1.65,.03,2.26,3.25,3.11,11.34,10.12,22.98,15.17,9.07,3.93,20.29,6.67,33.06,5.45Z"/><path class="cls-1" d="M267.4,86.16c.21,7.62-.74,34.1-21.54,54.96-16.09,16.13-35.13,20.27-45.05,21.3-.58,.06-1.08,.43-1.31,.96-.35,.81,.02,1.75,.83,2.1,.25,.11,.53,.15,.8,.12,10.34-1.07,30.19-5.38,46.98-22.22,9.67-9.69,16.36-21.58,19.88-35.34,1.81-7.06,2.73-14.66,2.6-21.45"/><path class="cls-1" d="M144.88,190.86c.35,.15,.74,.17,1.1,.06,.85-.26,1.32-1.15,1.06-2-1.62-5.25-2.23-10.75-1.79-16.23,.17-2.09,.49-4.16,.97-6.19,.2-.86-.33-1.71-1.19-1.91-.86-.2-1.72,.33-1.93,1.19-.51,2.19-.86,4.42-1.04,6.66-.47,5.88,.19,11.79,1.92,17.42,.14,.45,.46,.82,.89,1h0Z"/><line class="cls-7" x1="118.69" y2="273.94"/><polyline class="cls-7" points="0 273.94 196.84 359.23 315.54 85.29"/><line class="cls-7" x1="119.02" y1=".14" x2="5.16" y2="262.93"/><polyline class="cls-7" points="5.16 262.93 201.68 348.07 315.54 85.29"/><g><path class="cls-2" d="M258.59,313.89c-.48,0-.81-.16-.99-.48-.18-.32-.16-.72,.06-1.19l8.21-18.7c.32-.74,.81-1.1,1.46-1.1,.3,0,.57,.09,.82,.26,.25,.17,.45,.45,.61,.85l8.25,18.7c.22,.48,.25,.88,.09,1.19s-.48,.48-.96,.48c-.36,0-.65-.09-.87-.28s-.4-.46-.54-.82l-1.94-4.48h-10.96l-1.91,4.48c-.32,.74-.77,1.1-1.34,1.1Zm8.72-18.4l-4.57,10.75h9.2l-4.57-10.75h-.06Z"/><path class="cls-2" d="M285.86,313.95c-1.3,0-2.43-.31-3.39-.92-.97-.62-1.71-1.49-2.24-2.61-.53-1.13-.79-2.46-.79-3.99s.26-2.89,.79-4.02c.53-1.12,1.28-1.99,2.24-2.6,.97-.6,2.1-.91,3.39-.91,1.13,0,2.14,.25,3,.75,.87,.5,1.51,1.18,1.93,2.06v-8.06c0-.82,.41-1.22,1.22-1.22s1.2,.41,1.2,1.22v19c0,.84-.4,1.25-1.2,1.25s-1.19-.42-1.19-1.25v-1.55c-.44,.89-1.09,1.6-1.96,2.11-.87,.51-1.87,.76-3,.76Zm.51-1.94c1.35,0,2.44-.48,3.26-1.45s1.22-2.35,1.22-4.14-.41-3.2-1.22-4.15c-.82-.96-1.9-1.43-3.26-1.43s-2.46,.48-3.27,1.43c-.81,.95-1.21,2.34-1.21,4.15s.4,3.17,1.21,4.14c.81,.97,1.9,1.45,3.27,1.45Z"/><path class="cls-2" d="M299.16,295.61c-.98,0-1.46-.48-1.46-1.43s.49-1.43,1.46-1.43,1.49,.48,1.49,1.43-.5,1.43-1.49,1.43Zm0,18.22c-.8,0-1.19-.44-1.19-1.31v-12.22c0-.86,.4-1.28,1.19-1.28s1.22,.43,1.22,1.28v12.22c0,.88-.41,1.31-1.22,1.31Z"/><path class="cls-2" d="M306.09,319.27c-.8,0-1.19-.41-1.19-1.22v-17.86c0-.82,.39-1.22,1.16-1.22,.82,0,1.22,.41,1.22,1.22v1.55c.42-.88,1.07-1.57,1.94-2.07,.88-.51,1.88-.76,3.02-.76,1.29,0,2.42,.3,3.39,.91,.97,.61,1.71,1.48,2.24,2.6,.53,1.13,.79,2.47,.79,4.02s-.26,2.86-.79,3.99c-.53,1.12-1.27,1.99-2.24,2.61-.97,.62-2.1,.92-3.39,.92-1.12,0-2.11-.25-2.99-.75-.88-.5-1.52-1.18-1.94-2.06v6.9c0,.82-.41,1.22-1.22,1.22Zm5.65-7.26c1.35,0,2.44-.48,3.25-1.45s1.22-2.35,1.22-4.14-.41-3.2-1.22-4.15c-.82-.96-1.9-1.43-3.25-1.43s-2.44,.48-3.26,1.43c-.82,.95-1.22,2.34-1.22,4.15s.41,3.17,1.22,4.14c.82,.97,1.9,1.45,3.26,1.45Z"/><path class="cls-2" d="M328.34,313.95c-1.41,0-2.64-.31-3.67-.92-1.04-.62-1.84-1.49-2.41-2.61-.57-1.13-.85-2.46-.85-3.99s.28-2.86,.85-3.99c.57-1.12,1.37-1.99,2.41-2.61,1.03-.62,2.26-.92,3.67-.92s2.61,.31,3.66,.92c1.04,.62,1.85,1.49,2.42,2.61,.57,1.13,.85,2.46,.85,3.99s-.28,2.86-.85,3.99c-.57,1.12-1.37,1.99-2.42,2.61-1.05,.62-2.27,.92-3.66,.92Zm0-1.94c1.35,0,2.44-.48,3.26-1.45s1.22-2.35,1.22-4.14-.41-3.2-1.22-4.15c-.82-.96-1.9-1.43-3.26-1.43s-2.46,.48-3.27,1.43c-.81,.95-1.21,2.34-1.21,4.15s.4,3.17,1.21,4.14c.81,.97,1.9,1.45,3.27,1.45Z"/><path class="cls-2" d="M343.82,313.95c-.9,0-1.8-.11-2.7-.34-.91-.23-1.75-.6-2.52-1.12-.36-.22-.53-.5-.52-.85,0-.35,.14-.62,.4-.82s.59-.2,.99,0c.78,.48,1.53,.81,2.26,1,.73,.19,1.45,.28,2.17,.28,1.14,0,1.99-.21,2.57-.63,.58-.42,.87-.98,.87-1.7,0-.56-.19-1-.57-1.33-.38-.33-.97-.58-1.79-.76l-2.72-.6c-2.47-.54-3.71-1.81-3.71-3.82,0-1.31,.52-2.37,1.57-3.17s2.42-1.19,4.11-1.19c.86,0,1.68,.11,2.48,.34,.8,.23,1.51,.59,2.15,1.09,.34,.24,.49,.53,.45,.86-.04,.34-.19,.6-.46,.79s-.59,.17-.97-.08c-.6-.4-1.21-.69-1.82-.88-.62-.19-1.23-.29-1.82-.29-1.12,0-1.96,.22-2.54,.66-.58,.44-.87,1.01-.87,1.73,0,1.12,.74,1.83,2.21,2.15l2.72,.57c1.27,.28,2.24,.72,2.9,1.33,.66,.61,.98,1.43,.98,2.46,0,1.33-.53,2.39-1.58,3.15s-2.46,1.15-4.21,1.15Z"/><path class="cls-2" d="M354.48,295.61c-.98,0-1.46-.48-1.46-1.43s.49-1.43,1.46-1.43,1.49,.48,1.49,1.43-.5,1.43-1.49,1.43Zm0,18.22c-.8,0-1.19-.44-1.19-1.31v-12.22c0-.86,.4-1.28,1.19-1.28s1.22,.43,1.22,1.28v12.22c0,.88-.41,1.31-1.22,1.31Z"/><path class="cls-2" d="M366.04,313.95c-1.71,0-3-.45-3.85-1.36-.86-.91-1.28-2.21-1.28-3.93v-7.62h-2c-.7,0-1.05-.32-1.05-.96s.35-.93,1.05-.93h2v-3.43c0-.82,.41-1.22,1.22-1.22s1.19,.41,1.19,1.22v3.43h3.76c.7,0,1.05,.31,1.05,.93s-.35,.96-1.05,.96h-3.76v7.38c0,1.13,.24,2,.72,2.58,.48,.59,1.25,.88,2.33,.88,.38,0,.7-.04,.96-.12,.26-.08,.49-.12,.69-.12,.18-.02,.33,.04,.45,.18s.18,.38,.18,.72c0,.24-.05,.46-.14,.65-.09,.2-.24,.34-.46,.42-.24,.08-.55,.15-.94,.22-.39,.07-.74,.11-1.06,.11Z"/><path class="cls-2" d="M375.24,313.95c-1,0-1.89-.19-2.67-.58-.79-.39-1.41-.92-1.87-1.6s-.69-1.43-.69-2.27c0-1.06,.27-1.89,.82-2.51,.55-.62,1.45-1.06,2.72-1.33,1.26-.27,2.99-.4,5.18-.4h.96v-.93c0-1.23-.26-2.13-.76-2.67-.51-.55-1.32-.82-2.43-.82-.7,0-1.4,.09-2.11,.27-.71,.18-1.44,.47-2.2,.87-.34,.18-.62,.21-.85,.11s-.39-.29-.48-.54c-.09-.25-.09-.51,0-.78,.09-.27,.28-.47,.58-.61,.86-.44,1.72-.76,2.58-.96,.87-.2,1.69-.3,2.47-.3,1.87,0,3.26,.46,4.17,1.37,.91,.92,1.36,2.34,1.36,4.27v8.09c0,.84-.37,1.25-1.1,1.25-.78,0-1.17-.42-1.17-1.25v-1.46c-.38,.86-.96,1.53-1.75,2.03-.79,.5-1.71,.75-2.76,.75Zm.39-1.82c1.2,0,2.17-.41,2.93-1.24s1.14-1.88,1.14-3.15v-.9h-.93c-1.61,0-2.88,.08-3.81,.23-.93,.15-1.57,.41-1.94,.78-.37,.37-.55,.87-.55,1.51,0,.82,.28,1.48,.85,2,.57,.52,1.34,.78,2.31,.78Z"/><path class="cls-2" d="M391.4,313.95c-.9,0-1.8-.11-2.7-.34-.91-.23-1.75-.6-2.52-1.12-.36-.22-.53-.5-.52-.85,0-.35,.14-.62,.4-.82s.59-.2,.99,0c.78,.48,1.53,.81,2.26,1,.73,.19,1.45,.28,2.17,.28,1.14,0,1.99-.21,2.57-.63,.58-.42,.87-.98,.87-1.7,0-.56-.19-1-.57-1.33-.38-.33-.97-.58-1.79-.76l-2.72-.6c-2.47-.54-3.71-1.81-3.71-3.82,0-1.31,.52-2.37,1.57-3.17s2.42-1.19,4.11-1.19c.86,0,1.68,.11,2.48,.34,.8,.23,1.51,.59,2.15,1.09,.34,.24,.49,.53,.45,.86-.04,.34-.19,.6-.46,.79s-.59,.17-.97-.08c-.6-.4-1.21-.69-1.82-.88-.62-.19-1.23-.29-1.82-.29-1.12,0-1.96,.22-2.54,.66-.58,.44-.87,1.01-.87,1.73,0,1.12,.74,1.83,2.21,2.15l2.72,.57c1.27,.28,2.24,.72,2.9,1.33,.66,.61,.98,1.43,.98,2.46,0,1.33-.53,2.39-1.58,3.15s-2.46,1.15-4.21,1.15Z"/><path class="cls-2" d="M413.72,313.95c-3.49,0-5.23-1.92-5.23-5.77v-8c0-.82,.4-1.22,1.19-1.22s1.23,.41,1.23,1.22v7.97c0,1.3,.26,2.25,.79,2.87s1.36,.92,2.49,.92c1.24,0,2.24-.41,3.02-1.24,.78-.83,1.16-1.93,1.16-3.3v-7.23c0-.82,.41-1.22,1.22-1.22s1.2,.41,1.2,1.22v12.45c0,.84-.39,1.25-1.17,1.25s-1.19-.42-1.19-1.25v-1.4c-.46,.88-1.1,1.55-1.93,2.01-.83,.47-1.76,.7-2.79,.7Z"/><path class="cls-2" d="M426.53,313.89c-.8,0-1.19-.42-1.19-1.25v-12.45c0-.82,.39-1.22,1.16-1.22s1.2,.41,1.2,1.22v1.46c.48-.92,1.15-1.6,2.03-2.06s1.86-.69,2.96-.69c3.44,0,5.17,1.91,5.17,5.74v8c0,.84-.4,1.25-1.2,1.25s-1.22-.42-1.22-1.25v-7.85c0-1.36-.26-2.35-.79-2.97s-1.37-.94-2.52-.94c-1.34,0-2.4,.41-3.18,1.24-.79,.83-1.18,1.93-1.18,3.3v7.23c0,.84-.41,1.25-1.22,1.25Z"/><path class="cls-2" d="M447.83,313.95c-1.3,0-2.43-.31-3.39-.92-.97-.62-1.71-1.49-2.24-2.61-.53-1.13-.79-2.46-.79-3.99s.26-2.89,.79-4.02c.53-1.12,1.28-1.99,2.24-2.6,.97-.6,2.1-.91,3.39-.91,1.13,0,2.14,.25,3,.75,.87,.5,1.51,1.18,1.93,2.06v-8.06c0-.82,.41-1.22,1.22-1.22s1.2,.41,1.2,1.22v19c0,.84-.4,1.25-1.2,1.25s-1.19-.42-1.19-1.25v-1.55c-.44,.89-1.09,1.6-1.96,2.11-.87,.51-1.87,.76-3,.76Zm.51-1.94c1.35,0,2.44-.48,3.26-1.45s1.22-2.35,1.22-4.14-.41-3.2-1.22-4.15c-.82-.96-1.9-1.43-3.26-1.43s-2.46,.48-3.27,1.43c-.81,.95-1.21,2.34-1.21,4.15s.4,3.17,1.21,4.14c.81,.97,1.9,1.45,3.27,1.45Z"/><path class="cls-2" d="M474.56,313.95c-1.43,0-2.78-.17-4.05-.52-1.26-.35-2.36-.86-3.27-1.54-.32-.22-.51-.48-.57-.78-.06-.3-.02-.58,.11-.84s.32-.43,.58-.52,.56-.03,.9,.2c.9,.66,1.85,1.12,2.87,1.4,1.02,.28,2.16,.42,3.44,.42,1.79,0,3.12-.33,3.99-1,.87-.66,1.3-1.55,1.3-2.64,0-.88-.31-1.57-.94-2.09s-1.68-.93-3.15-1.22l-3.11-.63c-1.87-.4-3.27-1.05-4.2-1.96-.93-.91-1.39-2.12-1.39-3.63,0-1.25,.32-2.35,.97-3.29,.65-.94,1.55-1.66,2.7-2.18,1.15-.52,2.49-.78,4-.78,1.25,0,2.42,.18,3.51,.52,1.09,.35,2.07,.87,2.94,1.57,.28,.22,.44,.47,.49,.76,.05,.29,0,.55-.13,.79-.14,.24-.34,.39-.6,.47-.26,.07-.57,0-.93-.23-.8-.62-1.63-1.06-2.49-1.31-.87-.26-1.81-.39-2.82-.39-1.57,0-2.83,.36-3.76,1.09-.94,.73-1.4,1.69-1.4,2.88,0,.96,.29,1.72,.88,2.27,.59,.56,1.55,.97,2.88,1.22l3.11,.66c2.01,.42,3.5,1.05,4.47,1.9,.97,.85,1.45,2,1.45,3.45,0,1.18-.31,2.21-.94,3.11-.63,.89-1.52,1.59-2.69,2.09-1.17,.5-2.54,.75-4.14,.75Z"/><path class="cls-2" d="M491.56,313.95c-1.71,0-3-.45-3.85-1.36-.86-.91-1.28-2.21-1.28-3.93v-7.62h-2c-.7,0-1.05-.32-1.05-.96s.35-.93,1.05-.93h2v-3.43c0-.82,.41-1.22,1.22-1.22s1.19,.41,1.19,1.22v3.43h3.76c.7,0,1.05,.31,1.05,.93s-.35,.96-1.05,.96h-3.76v7.38c0,1.13,.24,2,.72,2.58,.48,.59,1.25,.88,2.33,.88,.38,0,.7-.04,.96-.12,.26-.08,.49-.12,.69-.12,.18-.02,.33,.04,.45,.18s.18,.38,.18,.72c0,.24-.05,.46-.14,.65-.09,.2-.24,.34-.46,.42-.24,.08-.55,.15-.94,.22-.39,.07-.74,.11-1.06,.11Z"/><path class="cls-2" d="M502.08,313.95c-1.41,0-2.64-.31-3.67-.92-1.04-.62-1.84-1.49-2.41-2.61-.57-1.13-.85-2.46-.85-3.99s.28-2.86,.85-3.99c.57-1.12,1.37-1.99,2.41-2.61,1.03-.62,2.26-.92,3.67-.92s2.61,.31,3.66,.92c1.04,.62,1.85,1.49,2.42,2.61,.57,1.13,.85,2.46,.85,3.99s-.28,2.86-.85,3.99c-.57,1.12-1.37,1.99-2.42,2.61-1.05,.62-2.27,.92-3.66,.92Zm0-1.94c1.35,0,2.44-.48,3.26-1.45s1.22-2.35,1.22-4.14-.41-3.2-1.22-4.15c-.82-.96-1.9-1.43-3.26-1.43s-2.46,.48-3.27,1.43c-.81,.95-1.21,2.34-1.21,4.15s.4,3.17,1.21,4.14c.81,.97,1.9,1.45,3.27,1.45Z"/><path class="cls-2" d="M514.47,313.89c-.8,0-1.2-.42-1.2-1.25v-11.59h-1.91c-.7,0-1.04-.32-1.04-.96s.35-.93,1.04-.93h1.91v-.51c0-3.72,1.82-5.74,5.47-6.06l.87-.09c.36-.02,.62,.06,.78,.24,.16,.18,.24,.39,.25,.64,.01,.25-.05,.48-.19,.67-.14,.2-.34,.31-.6,.33l-.69,.06c-1.22,.1-2.1,.47-2.64,1.1-.55,.64-.82,1.57-.82,2.81v.8h3.23c.7,0,1.05,.31,1.05,.93s-.35,.96-1.05,.96h-3.23v11.59c0,.84-.41,1.25-1.22,1.25Z"/><path class="cls-2" d="M523.94,313.89c-.8,0-1.2-.42-1.2-1.25v-11.59h-1.91c-.7,0-1.04-.32-1.04-.96s.35-.93,1.04-.93h1.91v-.51c0-3.72,1.82-5.74,5.47-6.06l.87-.09c.36-.02,.62,.06,.78,.24,.16,.18,.24,.39,.25,.64,.01,.25-.05,.48-.19,.67-.14,.2-.34,.31-.6,.33l-.69,.06c-1.22,.1-2.1,.47-2.64,1.1-.55,.64-.82,1.57-.82,2.81v.8h3.23c.7,0,1.05,.31,1.05,.93s-.35,.96-1.05,.96h-3.23v11.59c0,.84-.41,1.25-1.22,1.25Z"/><path class="cls-2" d="M536.73,313.89c-.74,0-1.25-.38-1.52-1.13l-4.45-12.1c-.2-.52-.2-.93,.02-1.24,.21-.31,.54-.46,1-.46,.3,0,.54,.07,.73,.21,.19,.14,.34,.4,.46,.78l3.82,10.9,3.94-10.9c.24-.66,.69-.98,1.34-.98s1.08,.33,1.31,.98l3.88,10.93,3.88-10.99c.14-.36,.3-.6,.49-.73,.19-.13,.43-.19,.73-.19,.48,0,.79,.17,.93,.52s.12,.74-.06,1.18l-4.45,12.1c-.3,.76-.81,1.13-1.52,1.13s-1.23-.38-1.49-1.13l-3.76-10.34-3.77,10.34c-.28,.76-.79,1.13-1.52,1.13Z"/><path class="cls-2" d="M563.16,313.95c-2.29,0-4.1-.67-5.44-2.02-1.33-1.34-2-3.17-2-5.48,0-1.49,.3-2.81,.9-3.96s1.42-2.03,2.46-2.66,2.26-.94,3.63-.94c1.97,0,3.51,.63,4.63,1.9s1.67,3,1.67,5.21c0,.62-.35,.92-1.05,.92h-9.89c.08,1.65,.56,2.91,1.43,3.78,.88,.87,2.09,1.3,3.64,1.3,.66,0,1.33-.08,2-.25,.68-.17,1.34-.47,1.97-.91,.46-.3,.84-.36,1.15-.18,.31,.18,.47,.45,.48,.82,0,.37-.19,.69-.61,.97-.66,.48-1.44,.85-2.35,1.1-.91,.26-1.79,.39-2.64,.39Zm-.39-13.26c-1.37,0-2.46,.43-3.26,1.28s-1.27,1.98-1.4,3.38h8.81c-.06-1.48-.44-2.62-1.15-3.44-.71-.82-1.71-1.22-3-1.22Z"/><path class="cls-2" d="M578.67,313.95c-1.46,0-2.71-.31-3.77-.94s-1.87-1.51-2.43-2.66-.85-2.48-.85-4.02c0-2.31,.63-4.13,1.88-5.45,1.25-1.33,2.98-1.99,5.17-1.99,.72,0,1.46,.11,2.24,.34,.78,.23,1.48,.6,2.12,1.12,.34,.24,.48,.54,.43,.89-.05,.36-.22,.63-.51,.81s-.62,.14-1-.12c-.54-.4-1.07-.68-1.6-.84-.53-.16-1.04-.24-1.54-.24-1.51,0-2.68,.47-3.49,1.42-.82,.94-1.22,2.3-1.22,4.08s.41,3.1,1.22,4.11,1.98,1.51,3.49,1.51c.5,0,1.01-.08,1.54-.24,.53-.16,1.06-.44,1.6-.84,.38-.26,.71-.29,.99-.11,.28,.19,.43,.47,.46,.82s-.11,.65-.43,.87c-.64,.52-1.33,.89-2.09,1.12s-1.49,.34-2.21,.34Z"/><path class="cls-2" d="M587.54,313.89c-.8,0-1.19-.42-1.19-1.25v-19c0-.82,.4-1.22,1.19-1.22s1.22,.41,1.22,1.22v7.92c.48-.88,1.15-1.54,2.02-1.99s1.84-.67,2.91-.67c3.44,0,5.17,1.91,5.17,5.74v8c0,.84-.4,1.25-1.2,1.25s-1.22-.42-1.22-1.25v-7.85c0-1.36-.26-2.35-.79-2.97s-1.37-.94-2.52-.94c-1.34,0-2.4,.41-3.18,1.24-.79,.83-1.18,1.93-1.18,3.3v7.23c0,.84-.41,1.25-1.22,1.25Z"/><path class="cls-2" d="M608.21,313.95c-.9,0-1.8-.11-2.7-.34-.91-.23-1.75-.6-2.52-1.12-.36-.22-.53-.5-.52-.85,0-.35,.14-.62,.4-.82s.59-.2,.99,0c.78,.48,1.53,.81,2.26,1,.73,.19,1.45,.28,2.17,.28,1.14,0,1.99-.21,2.57-.63,.58-.42,.87-.98,.87-1.7,0-.56-.19-1-.57-1.33-.38-.33-.97-.58-1.79-.76l-2.72-.6c-2.47-.54-3.71-1.81-3.71-3.82,0-1.31,.52-2.37,1.57-3.17s2.42-1.19,4.11-1.19c.86,0,1.68,.11,2.48,.34,.8,.23,1.51,.59,2.15,1.09,.34,.24,.49,.53,.45,.86-.04,.34-.19,.6-.46,.79s-.59,.17-.97-.08c-.6-.4-1.21-.69-1.82-.88-.62-.19-1.23-.29-1.82-.29-1.12,0-1.96,.22-2.54,.66-.58,.44-.87,1.01-.87,1.73,0,1.12,.74,1.83,2.21,2.15l2.72,.57c1.27,.28,2.24,.72,2.9,1.33,.66,.61,.98,1.43,.98,2.46,0,1.33-.53,2.39-1.58,3.15s-2.46,1.15-4.21,1.15Z"/><path class="cls-2" d="M624.22,313.95c-2.29,0-4.1-.67-5.44-2.02-1.33-1.34-2-3.17-2-5.48,0-1.49,.3-2.81,.9-3.96s1.42-2.03,2.46-2.66,2.26-.94,3.63-.94c1.97,0,3.51,.63,4.63,1.9s1.67,3,1.67,5.21c0,.62-.35,.92-1.05,.92h-9.89c.08,1.65,.56,2.91,1.43,3.78,.88,.87,2.09,1.3,3.64,1.3,.66,0,1.33-.08,2-.25,.68-.17,1.34-.47,1.97-.91,.46-.3,.84-.36,1.15-.18,.31,.18,.47,.45,.48,.82,0,.37-.19,.69-.61,.97-.66,.48-1.44,.85-2.35,1.1-.91,.26-1.79,.39-2.64,.39Zm-.39-13.26c-1.37,0-2.46,.43-3.26,1.28s-1.27,1.98-1.4,3.38h8.81c-.06-1.48-.44-2.62-1.15-3.44-.71-.82-1.71-1.22-3-1.22Z"/><path class="cls-2" d="M638,313.95c-1.43,0-2.53-.43-3.29-1.3-.76-.86-1.13-2.13-1.13-3.78v-15.23c0-.82,.4-1.22,1.19-1.22s1.22,.41,1.22,1.22v15.06c0,2.13,.85,3.2,2.54,3.2,.18,0,.34-.01,.48-.03,.14-.02,.28-.03,.42-.03,.22-.02,.37,.03,.46,.15,.09,.12,.14,.36,.14,.72,0,.68-.34,1.07-1.02,1.16-.16,.04-.33,.07-.51,.08-.18,.01-.35,.02-.51,.02Z"/><path class="cls-2" d="M659.57,313.95c-2.07,0-3.85-.44-5.32-1.31-1.47-.88-2.61-2.12-3.39-3.73-.79-1.61-1.18-3.53-1.18-5.77s.4-4.12,1.18-5.74c.79-1.61,1.92-2.86,3.39-3.73s3.25-1.31,5.32-1.31c1.23,0,2.4,.18,3.52,.54,1.11,.36,2.08,.87,2.9,1.52,.34,.24,.53,.52,.58,.84,.05,.32,0,.6-.17,.85-.16,.25-.38,.41-.67,.48-.29,.07-.62-.02-.97-.28-1.42-1.13-3.13-1.7-5.14-1.7-2.37,0-4.18,.74-5.44,2.24s-1.89,3.59-1.89,6.3,.63,4.84,1.89,6.33c1.25,1.49,3.06,2.24,5.44,2.24,2.01,0,3.74-.58,5.19-1.73,.36-.24,.68-.33,.98-.27,.29,.06,.5,.21,.65,.45,.15,.24,.2,.51,.17,.81s-.21,.57-.51,.81c-.86,.72-1.84,1.26-2.95,1.63-1.12,.37-2.31,.55-3.58,.55Z"/><path class="cls-2" d="M671.42,313.89c-.8,0-1.2-.42-1.2-1.25v-19c0-.82,.4-1.22,1.2-1.22s1.22,.41,1.22,1.22v7.92c.48-.88,1.15-1.54,2.02-1.99,.86-.45,1.84-.67,2.91-.67,3.44,0,5.17,1.91,5.17,5.74v8c0,.84-.4,1.25-1.19,1.25s-1.22-.42-1.22-1.25v-7.85c0-1.36-.27-2.35-.79-2.97-.53-.63-1.37-.94-2.52-.94-1.33,0-2.4,.41-3.18,1.24-.79,.83-1.18,1.93-1.18,3.3v7.23c0,.84-.41,1.25-1.22,1.25Z"/><path class="cls-2" d="M688.39,295.61c-.98,0-1.46-.48-1.46-1.43s.49-1.43,1.46-1.43,1.49,.48,1.49,1.43-.5,1.43-1.49,1.43Zm0,18.22c-.8,0-1.2-.44-1.2-1.31v-12.22c0-.86,.4-1.28,1.2-1.28s1.22,.43,1.22,1.28v12.22c0,.88-.41,1.31-1.22,1.31Z"/><path class="cls-2" d="M695.35,313.89c-.82,0-1.23-.42-1.23-1.25v-12.45c0-.82,.39-1.22,1.17-1.22s1.19,.41,1.19,1.22v1.58c.4-.91,1.01-1.62,1.85-2.1s1.83-.75,2.99-.79c.64-.06,.98,.26,1.02,.95,.06,.7-.3,1.09-1.08,1.17l-.48,.06c-1.37,.12-2.42,.55-3.14,1.3-.72,.75-1.07,1.77-1.07,3.06v7.23c0,.84-.41,1.25-1.22,1.25Z"/><path class="cls-2" d="M709.96,313.95c-3.49,0-5.22-1.92-5.22-5.77v-8c0-.82,.4-1.22,1.19-1.22s1.22,.41,1.22,1.22v7.97c0,1.3,.26,2.25,.79,2.87,.53,.62,1.36,.92,2.49,.92,1.23,0,2.24-.41,3.02-1.24s1.16-1.93,1.16-3.3v-7.23c0-.82,.41-1.22,1.22-1.22s1.19,.41,1.19,1.22v12.45c0,.84-.39,1.25-1.16,1.25s-1.19-.42-1.19-1.25v-1.4c-.46,.88-1.1,1.55-1.93,2.01-.83,.47-1.76,.7-2.79,.7Z"/><path class="cls-2" d="M722.8,313.89c-.82,0-1.23-.42-1.23-1.25v-12.45c0-.82,.39-1.22,1.17-1.22s1.19,.41,1.19,1.22v1.58c.4-.91,1.01-1.62,1.85-2.1s1.83-.75,2.99-.79c.64-.06,.98,.26,1.02,.95,.06,.7-.3,1.09-1.08,1.17l-.48,.06c-1.37,.12-2.42,.55-3.14,1.3-.72,.75-1.07,1.77-1.07,3.06v7.23c0,.84-.41,1.25-1.22,1.25Z"/><path class="cls-2" d="M738.51,319.33c-1.06,0-2.08-.12-3.09-.37-1.01-.25-1.92-.64-2.73-1.18-.3-.18-.47-.39-.53-.64-.05-.25-.02-.49,.11-.72s.29-.39,.52-.49c.23-.1,.47-.08,.73,.06,.88,.54,1.71,.91,2.51,1.1s1.59,.3,2.36,.3c2.87,0,4.3-1.47,4.3-4.42v-2.57c-.42,.92-1.07,1.64-1.96,2.17-.89,.53-1.9,.79-3.03,.79-1.34,0-2.49-.31-3.47-.92-.98-.62-1.73-1.47-2.25-2.55-.53-1.09-.79-2.35-.79-3.78s.26-2.69,.79-3.78c.53-1.09,1.28-1.93,2.25-2.53,.98-.6,2.13-.89,3.47-.89,1.13,0,2.14,.25,3.02,.75,.88,.5,1.52,1.19,1.94,2.09v-1.55c0-.82,.4-1.22,1.19-1.22s1.19,.41,1.19,1.22v12.45c0,2.23-.55,3.91-1.66,5.02-1.11,1.11-2.73,1.67-4.89,1.67Zm-.36-7.95c1.39,0,2.5-.48,3.32-1.43,.82-.96,1.22-2.24,1.22-3.85s-.41-2.89-1.22-3.84c-.82-.95-1.92-1.42-3.32-1.42s-2.47,.47-3.29,1.42-1.22,2.22-1.22,3.84,.41,2.9,1.22,3.85c.82,.95,1.91,1.43,3.29,1.43Z"/><path class="cls-2" d="M750.8,295.61c-.98,0-1.46-.48-1.46-1.43s.49-1.43,1.46-1.43,1.49,.48,1.49,1.43-.5,1.43-1.49,1.43Zm0,18.22c-.8,0-1.2-.44-1.2-1.31v-12.22c0-.86,.4-1.28,1.2-1.28s1.22,.43,1.22,1.28v12.22c0,.88-.41,1.31-1.22,1.31Z"/><path class="cls-2" d="M763.07,313.95c-2.29,0-4.1-.67-5.43-2.02-1.34-1.34-2-3.17-2-5.48,0-1.49,.3-2.81,.89-3.96,.6-1.15,1.42-2.03,2.47-2.66,1.04-.63,2.25-.94,3.63-.94,1.97,0,3.52,.63,4.63,1.9s1.67,3,1.67,5.21c0,.62-.35,.92-1.04,.92h-9.89c.08,1.65,.56,2.91,1.43,3.78,.88,.87,2.09,1.3,3.64,1.3,.66,0,1.33-.08,2-.25s1.33-.47,1.97-.91c.46-.3,.84-.36,1.15-.18,.31,.18,.47,.45,.48,.82,.01,.37-.19,.69-.61,.97-.66,.48-1.44,.85-2.34,1.1s-1.79,.39-2.64,.39Zm-.39-13.26c-1.37,0-2.46,.43-3.26,1.28s-1.27,1.98-1.4,3.38h8.81c-.06-1.48-.44-2.62-1.15-3.44-.71-.82-1.71-1.22-3-1.22Z"/></g></g></svg>