<?xml version="1.0" encoding="UTF-8"?><svg id="katman_2" xmlns="http://www.w3.org/2000/svg" viewBox="0 0 25.6 25.6"><defs><style>.cls-1{fill:#1da9ba;}</style></defs><g id="katman_1"><path class="cls-1" d="M12.8,0C5.73,0,0,5.73,0,12.8s5.73,12.8,12.8,12.8,12.8-5.73,12.8-12.8h0C25.62,5.75,19.93,.02,12.88,0c-.03,0-.05,0-.08,0Zm6.79,10c-2.59,2.53-5.14,5.1-7.7,7.66-.22,.29-.52,.5-.87,.61-.29-.03-.56-.17-.74-.4l-4.43-4.37c-.41-.26-.53-.81-.26-1.22,.07-.11,.16-.2,.26-.26,.23-.2,.45-.41,.66-.64,.47-.53,.91-.47,1.39,0,.81,.83,1.66,1.61,2.44,2.47,.45,.5,.73,.5,1.2,0,1.95-2,3.95-4,5.93-6,.9-.9,.95-.84,2.12,.25,.78,.77,.68,1.27,0,1.9Z"/></g></svg>